<svg width="50" height="50" viewBox="0 0 50 50" fill="none" xmlns="http://www.w3.org/2000/svg">
<path d="M50 25C50 41.6667 41.6667 50 25 50C8.33333 50 0 41.6667 0 25C0 8.33333 8.33333 0 25 0C41.6667 0 50 8.33333 50 25Z" fill="url(#paint0_linear)"/>
<path fill-rule="evenodd" clip-rule="evenodd" d="M21.1376 35C20.7256 35 20.3346 34.968 19.9666 34.905L19.7486 34.864C17.3776 34.371 15.9996 32.555 15.9996 29.791V20.209C15.9996 19.875 16.0196 19.555 16.0596 19.249C16.4086 16.564 18.2536 15 21.1376 15H28.8626C32.0586 15 33.9696 16.92 33.9996 20.132V20.209V29.791C33.9996 33.048 32.0836 35 28.8626 35H21.1376ZM21.1376 16.457C18.6816 16.457 17.4366 17.72 17.4366 20.209V29.791C17.4366 32.28 18.6816 33.543 21.1376 33.543H28.8536C31.3086 33.543 32.5456 32.28 32.5456 29.791V20.209C32.5456 17.72 31.3086 16.457 28.8536 16.457H21.1376ZM29.3056 29.234C29.3056 28.834 28.9866 28.51 28.5926 28.51H21.3816C20.9876 28.51 20.6676 28.834 20.6676 29.234C20.6676 29.634 20.9876 29.958 21.3816 29.958H28.5926C28.9866 29.958 29.3056 29.634 29.3056 29.234ZM28.5926 24.271C28.8676 24.241 29.1366 24.373 29.2836 24.61C29.4306 24.849 29.4306 25.151 29.2836 25.39C29.1366 25.627 28.8676 25.759 28.5926 25.729H21.3816C21.0156 25.687 20.7386 25.374 20.7386 25C20.7386 24.626 21.0156 24.312 21.3816 24.271H28.5926ZM24.7767 20.7711C24.7767 20.3971 24.4997 20.0831 24.1337 20.0421H21.3907C21.0237 20.0831 20.7467 20.3971 20.7467 20.7711C20.7467 21.1441 21.0237 21.4581 21.3907 21.4991H24.1337C24.4997 21.4581 24.7767 21.1441 24.7767 20.7711Z" fill="white"/>
<defs>
<linearGradient id="paint0_linear" x1="39" y1="4.5" x2="17.5" y2="46" gradientUnits="userSpaceOnUse">
<stop stop-color="#F06269"/>
<stop offset="1" stop-color="#EA444C"/>
</linearGradient>
</defs>
</svg>
