<svg width="50" height="50" viewBox="0 0 50 50" fill="none" xmlns="http://www.w3.org/2000/svg">
<path d="M50 25C50 41.6667 41.6667 50 25 50C8.33333 50 0 41.6667 0 25C0 8.33333 8.33333 0 25 0C41.6667 0 50 8.33333 50 25Z" fill="url(#paint0_linear)"/>
<path fill-rule="evenodd" clip-rule="evenodd" d="M19.2 17.25H19.1696H19.1696C18.6354 17.25 18.1896 17.25 17.8253 17.2797C17.4454 17.3108 17.0888 17.3779 16.7515 17.5497C16.2341 17.8134 15.8134 18.2341 15.5497 18.7515C15.3779 19.0888 15.3108 19.4454 15.2797 19.8253C15.25 20.1896 15.25 20.6354 15.25 21.1696L15.25 21.2V29.25H14C13.5858 29.25 13.25 29.5858 13.25 30V32C13.25 32.9665 14.0335 33.75 15 33.75H31.1157H31.1695H31.2H32H32.8H32.8305C33.3646 33.75 33.8104 33.75 34.1747 33.7203C34.5546 33.6892 34.9112 33.6221 35.2485 33.4503C35.7659 33.1866 36.1866 32.7659 36.4503 32.2485C36.6221 31.9112 36.6892 31.5546 36.7203 31.1747C36.75 30.8104 36.75 30.3646 36.75 29.8305V29.8V24.2V24.1695C36.75 23.6354 36.75 23.1896 36.7203 22.8253C36.6892 22.4454 36.6221 22.0888 36.4503 21.7515C36.1866 21.2341 35.7659 20.8134 35.2485 20.5497C35.0861 20.467 34.9193 20.4086 34.7475 20.3667C34.7449 20.1785 34.7397 20.0082 34.7292 19.8546C34.7076 19.5375 34.661 19.238 34.5407 18.9476C34.2616 18.2738 33.7262 17.7384 33.0524 17.4593C32.762 17.339 32.4625 17.2924 32.1454 17.2708C31.8408 17.25 31.4697 17.25 31.0253 17.25H31.0252H31H19.2ZM32 32.25L31.2 32.25C30.6276 32.25 30.2434 32.2494 29.9475 32.2252C29.6604 32.2018 29.5231 32.1599 29.4325 32.1138C29.1973 31.9939 29.0061 31.8027 28.8862 31.5675C28.8401 31.4769 28.7982 31.3396 28.7748 31.0525C28.7506 30.7566 28.75 30.3724 28.75 29.8V24.2C28.75 23.6276 28.7506 23.2434 28.7748 22.9475C28.7982 22.6604 28.8401 22.5231 28.8862 22.4325C29.0061 22.1973 29.1973 22.0061 29.4325 21.8862C29.5231 21.8401 29.6604 21.7982 29.9475 21.7748C30.2434 21.7506 30.6276 21.75 31.2 21.75H32.8C33.3724 21.75 33.7566 21.7506 34.0525 21.7748C34.3396 21.7982 34.4769 21.8401 34.5675 21.8862C34.8027 22.0061 34.9939 22.1973 35.1138 22.4325C35.1599 22.5231 35.2018 22.6604 35.2252 22.9475C35.2494 23.2434 35.25 23.6276 35.25 24.2V29.8C35.25 30.3724 35.2494 30.7566 35.2252 31.0525C35.2018 31.3396 35.1599 31.4769 35.1138 31.5675C34.9939 31.8027 34.8027 31.9939 34.5675 32.1138C34.4769 32.1599 34.3396 32.2018 34.0525 32.2252C33.7566 32.2494 33.3724 32.25 32.8 32.25L32 32.25ZM15 32.25H27.5505L27.5497 32.2485C27.3779 31.9112 27.3108 31.5546 27.2797 31.1747C27.269 31.0438 27.2622 30.9023 27.2578 30.75H16H14.75V32C14.75 32.1381 14.8619 32.25 15 32.25ZM27.25 24.2V29.25H16.75V21.2C16.75 20.6276 16.7506 20.2434 16.7748 19.9475C16.7982 19.6604 16.8401 19.5231 16.8862 19.4325C17.0061 19.1973 17.1973 19.0061 17.4325 18.8862C17.5231 18.8401 17.6604 18.7982 17.9475 18.7748C18.2434 18.7506 18.6276 18.75 19.2 18.75H31C31.4762 18.75 31.7958 18.7504 32.0433 18.7673C32.284 18.7837 32.4012 18.8132 32.4784 18.8452C32.7846 18.972 33.028 19.2154 33.1549 19.5216C33.1868 19.5988 33.2163 19.716 33.2327 19.9567C33.2387 20.0444 33.2426 20.1411 33.2452 20.2506C33.1133 20.25 32.9751 20.25 32.8304 20.25L32.8 20.25H31.2L31.1696 20.25C30.6354 20.25 30.1896 20.25 29.8253 20.2797C29.4454 20.3108 29.0888 20.3779 28.7515 20.5497C28.2341 20.8134 27.8134 21.2341 27.5497 21.7515C27.3779 22.0888 27.3108 22.4454 27.2797 22.8253C27.25 23.1896 27.25 23.6354 27.25 24.1696V24.2ZM32 25C32.5523 25 33 24.5523 33 24C33 23.4477 32.5523 23 32 23C31.4477 23 31 23.4477 31 24C31 24.5523 31.4477 25 32 25Z" fill="white"/>
<defs>
<linearGradient id="paint0_linear" x1="7" y1="57" x2="35" y2="3.66941e-07" gradientUnits="userSpaceOnUse">
<stop stop-color="#61C28F"/>
<stop offset="1" stop-color="#88E3B3"/>
</linearGradient>
</defs>
</svg>
