<svg width="50" height="50" viewBox="0 0 50 50" fill="none" xmlns="http://www.w3.org/2000/svg">
<path d="M50 25C50 41.6667 41.6667 50 25 50C8.33333 50 0 41.6667 0 25C0 8.33333 8.33333 0 25 0C41.6667 0 50 8.33333 50 25Z" fill="url(#paint0_linear)"/>
<path fill-rule="evenodd" clip-rule="evenodd" d="M29.4186 15.603C29.3728 15.2625 29.0831 15 28.7326 15C28.3503 15 28.0403 15.3124 28.0403 15.6977V16.469H21.9681V15.6977L21.9618 15.603C21.916 15.2625 21.6263 15 21.2758 15C20.8935 15 20.5835 15.3124 20.5835 15.6977V16.4863C17.7465 16.6817 16 18.5199 16 21.4858V29.9041C16 33.0872 17.9583 35 21.0963 35H28.9036C32.0453 35 33.9999 33.1193 33.9999 29.9744V21.4858C34.009 18.5189 32.268 16.6812 29.4249 16.4863V15.6977L29.4186 15.603ZM28.0403 17.8644V18.7589L28.0466 18.8535C28.0925 19.1941 28.3821 19.4565 28.7326 19.4565C29.115 19.4565 29.4249 19.1442 29.4249 18.7589V17.885C31.4935 18.0571 32.622 19.3027 32.6153 21.4836V21.8877H17.3846V21.4858C17.3846 19.3063 18.5193 18.058 20.5835 17.8851V18.7589L20.5898 18.8535C20.6357 19.1941 20.9253 19.4565 21.2758 19.4565C21.6582 19.4565 21.9681 19.1442 21.9681 18.7589V17.8644H28.0403ZM17.3846 23.283V29.9041C17.3846 32.3067 18.7135 33.6047 21.0963 33.6047H28.9036C31.2946 33.6047 32.6153 32.3338 32.6153 29.9744L32.6153 23.283H17.3846ZM29.8012 26.2183C29.8012 25.833 29.4912 25.5206 29.1089 25.5206L29.0064 25.527C28.6685 25.5732 28.408 25.8651 28.408 26.2183C28.408 26.6036 28.718 26.916 29.1089 26.916L29.2028 26.9096C29.5407 26.8634 29.8012 26.5715 29.8012 26.2183ZM25.0128 25.5206C25.3951 25.5206 25.7051 25.833 25.7051 26.2183C25.7051 26.5715 25.4446 26.8634 25.1067 26.9096L25.0128 26.916C24.6219 26.916 24.3119 26.6036 24.3119 26.2183C24.3119 25.8651 24.5724 25.5732 24.9103 25.527L25.0128 25.5206ZM21.6004 26.2183C21.6004 25.833 21.2905 25.5206 20.9081 25.5206L20.8056 25.527C20.4677 25.5732 20.2073 25.8651 20.2073 26.2183C20.2073 26.6036 20.5172 26.916 20.8996 26.916L21.0021 26.9096C21.34 26.8634 21.6004 26.5715 21.6004 26.2183ZM29.1089 29.136C29.4912 29.136 29.8012 29.4484 29.8012 29.8337C29.8012 30.1869 29.5407 30.4788 29.2028 30.525L29.1089 30.5314C28.718 30.5314 28.408 30.219 28.408 29.8337C28.408 29.4805 28.6685 29.1886 29.0064 29.1424L29.1089 29.136ZM25.7051 29.8337C25.7051 29.4484 25.3951 29.136 25.0128 29.136L24.9103 29.1424C24.5724 29.1886 24.3119 29.4805 24.3119 29.8337C24.3119 30.219 24.6219 30.5314 25.0128 30.5314L25.1067 30.525C25.4446 30.4788 25.7051 30.1869 25.7051 29.8337ZM20.9081 29.136C21.2905 29.136 21.6004 29.4484 21.6004 29.8337C21.6004 30.1869 21.34 30.4788 21.0021 30.525L20.8996 30.5314C20.5172 30.5314 20.2073 30.219 20.2073 29.8337C20.2073 29.4805 20.4677 29.1886 20.8056 29.1424L20.9081 29.136Z" fill="#F7F7F7"/>
<defs>
<linearGradient id="paint0_linear" x1="37.5" y1="-5.2154e-08" x2="16" y2="46.5" gradientUnits="userSpaceOnUse">
<stop stop-color="#F48675"/>
<stop offset="1" stop-color="#F06651"/>
</linearGradient>
</defs>
</svg>
