<svg width="50" height="50" viewBox="0 0 50 50" fill="none" xmlns="http://www.w3.org/2000/svg">
<path d="M50 25C50 41.6667 41.6667 50 25 50C8.33333 50 0 41.6667 0 25C0 8.33333 8.33333 0 25 0C41.6667 0 50 8.33333 50 25Z" fill="url(#paint0_linear)"/>
<path fill-rule="evenodd" clip-rule="evenodd" d="M16.75 25C16.75 20.4437 20.4437 16.75 25 16.75C26.3185 16.75 27.5627 17.0587 28.6662 17.6072C29.0372 17.7915 29.4873 17.6402 29.6716 17.2693C29.856 16.8984 29.7047 16.4482 29.3338 16.2639C28.0274 15.6147 26.5552 15.25 25 15.25C19.6152 15.25 15.25 19.6152 15.25 25C15.25 30.3848 19.6152 34.75 25 34.75C30.3848 34.75 34.75 30.3848 34.75 25C34.75 24.6344 34.7298 24.2732 34.6905 23.9176C34.645 23.5059 34.2744 23.209 33.8627 23.2545C33.451 23.3001 33.1541 23.6707 33.1996 24.0824C33.2329 24.3834 33.25 24.6896 33.25 25C33.25 29.5563 29.5563 33.25 25 33.25C20.4437 33.25 16.75 29.5563 16.75 25ZM34.5303 18.5303C34.8232 18.2374 34.8232 17.7626 34.5303 17.4697C34.2374 17.1768 33.7626 17.1768 33.4697 17.4697L25 25.9393L22.5303 23.4697C22.2374 23.1768 21.7626 23.1768 21.4697 23.4697C21.1768 23.7626 21.1768 24.2374 21.4697 24.5303L24.4697 27.5303C24.6103 27.671 24.8011 27.75 25 27.75C25.1989 27.75 25.3897 27.671 25.5303 27.5303L34.5303 18.5303Z" fill="white"/>
<defs>
<linearGradient id="paint0_linear" x1="47.5" y1="-6.5" x2="2" y2="58" gradientUnits="userSpaceOnUse">
<stop stop-color="#61C28F"/>
<stop offset="1" stop-color="#88E3B3"/>
</linearGradient>
</defs>
</svg>
