<svg width="50" height="50" viewBox="0 0 50 50" fill="none" xmlns="http://www.w3.org/2000/svg">
<path d="M50 25C50 41.6667 41.6667 50 25 50C8.33333 50 0 41.6667 0 25C0 8.33333 8.33333 0 25 0C41.6667 0 50 8.33333 50 25Z" fill="url(#paint0_linear)"/>
<path fill-rule="evenodd" clip-rule="evenodd" d="M19 15.2499L18.8843 15.2498C18.0663 15.2496 17.5081 15.2494 17.0295 15.3776C15.7354 15.7244 14.7246 16.7352 14.3778 18.0293C14.2496 18.508 14.2498 19.0661 14.25 19.8841L14.25 19.9999V28.1999L14.25 28.232C14.25 29.0448 14.25 29.7004 14.2934 30.2313C14.3381 30.778 14.4324 31.2581 14.6588 31.7023C15.0183 32.4079 15.592 32.9816 16.2976 33.3411C16.7418 33.5675 17.2219 33.6618 17.7686 33.7065C18.2995 33.7499 18.9551 33.7499 19.7679 33.7499H19.8001H28H30.2H30.2322C31.045 33.7499 31.7006 33.7499 32.2315 33.7065C32.7782 33.6618 33.2583 33.5675 33.7025 33.3411C34.4081 32.9816 34.9818 32.4079 35.3413 31.7023C35.5677 31.2581 35.662 30.778 35.7067 30.2313C35.7501 29.7004 35.7501 29.0448 35.75 28.232V28.1999V23.7999V23.7677C35.7501 22.9549 35.7501 22.2993 35.7067 21.7684C35.662 21.2218 35.5677 20.7416 35.3413 20.2974C34.9818 19.5918 34.4081 19.0181 33.7025 18.6586C33.2583 18.4323 32.7782 18.3379 32.2315 18.2932C31.8929 18.2656 31.5035 18.2555 31.0549 18.2519C31.0368 18.2506 31.0185 18.2499 31 18.2499H30.5186L30.2321 18.2499H30.2H27.9883C27.2188 18.2499 26.9563 18.245 26.7174 18.1877C26.4879 18.1326 26.2684 18.0417 26.0671 17.9183C25.8576 17.79 25.6686 17.6077 25.1245 17.0636L24.9363 16.8754L24.8758 16.815C24.4153 16.3541 24.0964 16.0351 23.7168 15.8025C23.3813 15.5969 23.0155 15.4453 22.6328 15.3535C22.1999 15.2495 21.7488 15.2497 21.0973 15.2498L21.0118 15.2499H19ZM26.25 19.6161C25.9099 19.5227 25.5844 19.3818 25.2833 19.1973C24.9037 18.9646 24.5848 18.6456 24.1242 18.1847L24.0638 18.1243L23.8756 17.9361C23.3315 17.392 23.1425 17.2098 22.933 17.0814C22.7317 16.9581 22.5122 16.8672 22.2827 16.812C22.0438 16.7547 21.7813 16.7499 21.0118 16.7499H19C18.0218 16.7499 17.6798 16.7563 17.4177 16.8265C16.6412 17.0346 16.0348 17.6411 15.8267 18.4175C15.7565 18.6796 15.75 19.0216 15.75 19.9999V28.1999C15.75 29.0523 15.7506 29.6466 15.7884 30.1092C15.8255 30.5631 15.8946 30.8238 15.9953 31.0213C16.211 31.4447 16.5552 31.7889 16.9786 32.0046C17.1761 32.1053 17.4369 32.1744 17.8907 32.2115C18.3534 32.2493 18.9476 32.2499 19.8001 32.2499H28H30.2C31.0525 32.2499 31.6467 32.2493 32.1094 32.2115C32.5632 32.1744 32.824 32.1053 33.0215 32.0046C33.4449 31.7889 33.7891 31.4447 34.0048 31.0213C34.1055 30.8238 34.1746 30.5631 34.2117 30.1092C34.2495 29.6466 34.25 29.0523 34.25 28.1999V23.7999C34.25 22.9474 34.2495 22.3532 34.2117 21.8905C34.1746 21.4367 34.1055 21.1759 34.0048 20.9784C33.7891 20.555 33.4449 20.2108 33.0215 19.9951C32.824 19.8945 32.5632 19.8253 32.1094 19.7882C31.9978 19.7791 31.8786 19.7722 31.75 19.7669V19.9999C31.75 21.5187 30.5188 22.7499 29 22.7499C27.4812 22.7499 26.25 21.5187 26.25 19.9999V19.6161ZM27.75 19.9999V19.7499H30.25V19.9999C30.25 20.6903 29.6904 21.2499 29 21.2499C28.3096 21.2499 27.75 20.6903 27.75 19.9999ZM29 24.2499C29.4142 24.2499 29.75 24.5857 29.75 24.9999V25.9999C29.75 26.4142 29.4142 26.7499 29 26.7499C28.5858 26.7499 28.25 26.4142 28.25 25.9999V24.9999C28.25 24.5857 28.5858 24.2499 29 24.2499ZM29.75 28.9999C29.75 28.5857 29.4142 28.2499 29 28.2499C28.5858 28.2499 28.25 28.5857 28.25 28.9999V29.9999C28.25 30.4142 28.5858 30.7499 29 30.7499C29.4142 30.7499 29.75 30.4142 29.75 29.9999V28.9999Z" fill="white"/>
<defs>
<linearGradient id="paint0_linear" x1="35.5" y1="2.5" x2="16" y2="50" gradientUnits="userSpaceOnUse">
<stop stop-color="#F7A950"/>
<stop offset="1" stop-color="#F39A48"/>
</linearGradient>
</defs>
</svg>
