<svg width="50" height="50" viewBox="0 0 50 50" fill="none" xmlns="http://www.w3.org/2000/svg">
<path d="M50 25C50 41.6667 41.6667 50 25 50C8.33333 50 0 41.6667 0 25C0 8.33333 8.33333 0 25 0C41.6667 0 50 8.33333 50 25Z" fill="url(#paint0_linear)"/>
<path fill-rule="evenodd" clip-rule="evenodd" d="M17.75 20C17.75 18.2051 19.2051 16.75 21 16.75C22.7949 16.75 24.25 18.2051 24.25 20C24.25 21.7949 22.7949 23.25 21 23.25C19.2051 23.25 17.75 21.7949 17.75 20ZM21 15.25C18.3766 15.25 16.25 17.3766 16.25 20C16.25 22.6234 18.3766 24.75 21 24.75C23.6234 24.75 25.75 22.6234 25.75 20C25.75 17.3766 23.6234 15.25 21 15.25ZM27 15.25C26.5858 15.25 26.25 15.5858 26.25 16C26.25 16.4142 26.5858 16.75 27 16.75C28.7949 16.75 30.25 18.2051 30.25 20C30.25 21.7949 28.7949 23.25 27 23.25C26.5858 23.25 26.25 23.5858 26.25 24C26.25 24.4142 26.5858 24.75 27 24.75C29.6234 24.75 31.75 22.6234 31.75 20C31.75 17.3766 29.6234 15.25 27 15.25ZM19 28.75C17.2051 28.75 15.75 30.2051 15.75 32C15.75 32.6904 16.3096 33.25 17 33.25H25C25.6904 33.25 26.25 32.6904 26.25 32C26.25 30.2051 24.7949 28.75 23 28.75H19ZM14.25 32C14.25 29.3766 16.3766 27.25 19 27.25H23C25.6234 27.25 27.75 29.3766 27.75 32C27.75 33.5188 26.5188 34.75 25 34.75H17C15.4812 34.75 14.25 33.5188 14.25 32ZM29 27.25C28.5858 27.25 28.25 27.5858 28.25 28C28.25 28.4142 28.5858 28.75 29 28.75H31C32.7949 28.75 34.25 30.2051 34.25 32C34.25 32.6904 33.6904 33.25 33 33.25H29C28.5858 33.25 28.25 33.5858 28.25 34C28.25 34.4142 28.5858 34.75 29 34.75H33C34.5188 34.75 35.75 33.5188 35.75 32C35.75 29.3766 33.6234 27.25 31 27.25H29Z" fill="white"/>
<defs>
<linearGradient id="paint0_linear" x1="5" y1="55.5" x2="41.5" y2="2.5" gradientUnits="userSpaceOnUse">
<stop stop-color="#297E6F"/>
<stop offset="1" stop-color="#1C9B85"/>
</linearGradient>
</defs>
</svg>
