<svg width="50" height="50" viewBox="0 0 50 50" fill="none" xmlns="http://www.w3.org/2000/svg">
<path d="M50 25C50 41.6667 41.6667 50 25 50C8.33333 50 0 41.6667 0 25C0 8.33333 8.33333 0 25 0C41.6667 0 50 8.33333 50 25Z" fill="#169AAC"/>
<path fill-rule="evenodd" clip-rule="evenodd" d="M22 16.75C20.2051 16.75 18.75 18.2051 18.75 20C18.75 21.7949 20.2051 23.25 22 23.25C23.7949 23.25 25.25 21.7949 25.25 20C25.25 18.2051 23.7949 16.75 22 16.75ZM17.25 20C17.25 17.3766 19.3766 15.25 22 15.25C24.6234 15.25 26.75 17.3766 26.75 20C26.75 22.6234 24.6234 24.75 22 24.75C19.3766 24.75 17.25 22.6234 17.25 20ZM19 28.75C17.2051 28.75 15.75 30.2051 15.75 32C15.75 32.6904 16.3096 33.25 17 33.25H27C27.6904 33.25 28.25 32.6904 28.25 32C28.25 30.2051 26.7949 28.75 25 28.75H19ZM14.25 32C14.25 29.3766 16.3766 27.25 19 27.25H25C27.6234 27.25 29.75 29.3766 29.75 32C29.75 33.5188 28.5188 34.75 27 34.75H17C15.4812 34.75 14.25 33.5188 14.25 32ZM33.75 20C33.75 19.5858 33.4142 19.25 33 19.25C32.5858 19.25 32.25 19.5858 32.25 20V22.25H30C29.5858 22.25 29.25 22.5858 29.25 23C29.25 23.4142 29.5858 23.75 30 23.75H32.25V26C32.25 26.4142 32.5858 26.75 33 26.75C33.4142 26.75 33.75 26.4142 33.75 26V23.75H36C36.4142 23.75 36.75 23.4142 36.75 23C36.75 22.5858 36.4142 22.25 36 22.25H33.75V20Z" fill="white"/>
</svg>
