<svg width="50" height="50" viewBox="0 0 50 50" fill="none" xmlns="http://www.w3.org/2000/svg">
<path d="M50 25C50 41.6667 41.6667 50 25 50C8.33333 50 0 41.6667 0 25C0 8.33333 8.33333 0 25 0C41.6667 0 50 8.33333 50 25Z" fill="url(#paint0_linear)"/>
<path fill-rule="evenodd" clip-rule="evenodd" d="M34.9887 22.9375C34.3016 18.7442 30.7166 15.6247 26.442 15.5004C26.0141 15.4906 25.6014 15.6577 25.3024 15.962C25.0136 16.2596 24.8641 16.6641 24.8904 17.0767L25.3287 23.6167C25.3971 24.4422 26.0904 25.078 26.9241 25.0798H27.0293L33.6037 24.6444C33.9985 24.622 34.3679 24.4438 34.6297 24.1493C34.8914 23.8549 35.0239 23.4688 34.9975 23.0768V22.9375H34.9887ZM26.9241 23.5122L26.4858 17.0854C29.9251 17.224 32.8051 19.7193 33.4109 23.0855L26.9241 23.5122ZM29.7993 27.9884C29.9225 27.5712 30.3582 27.3277 30.7811 27.4398C30.9885 27.489 31.1671 27.6195 31.2761 27.8016C31.3851 27.9837 31.4152 28.2019 31.3597 28.4064C30.7643 30.5651 29.3122 32.3911 27.3361 33.4661C24.9113 34.8013 21.9757 34.8458 19.511 33.5848C17.0463 32.3238 15.3779 29.9237 15.0639 27.1872C15.0129 26.8677 14.9924 26.544 15.0025 26.2206C14.9983 22.2993 17.7656 18.9137 21.6295 18.113C22.0652 18.0264 22.4891 18.3071 22.5762 18.74C22.6634 19.1728 22.3808 19.5939 21.9451 19.6805C18.8264 20.3395 16.5991 23.0792 16.6067 26.2467C16.5994 26.4943 16.6141 26.742 16.6505 26.9869C17.0351 30.1495 19.6143 32.6021 22.8114 32.8456C26.0086 33.0891 28.9339 31.0558 29.7993 27.9884Z" fill="white"/>
<defs>
<linearGradient id="paint0_linear" x1="8" y1="54" x2="40.5" y2="-4" gradientUnits="userSpaceOnUse">
<stop stop-color="#9A53C8"/>
<stop offset="1" stop-color="#B36AFC"/>
</linearGradient>
</defs>
</svg>
