<svg width="50" height="50" viewBox="0 0 50 50" fill="none" xmlns="http://www.w3.org/2000/svg">
<path d="M50 25C50 41.6667 41.6667 50 25 50C8.33333 50 0 41.6667 0 25C0 8.33333 8.33333 0 25 0C41.6667 0 50 8.33333 50 25Z" fill="url(#paint0_linear)"/>
<path fill-rule="evenodd" clip-rule="evenodd" d="M28.33 19.4398C29.1659 18.8129 29.7517 18.3745 30.2138 18.0896C30.6856 17.7986 30.9076 17.7476 31.026 17.7501C31.4011 17.7579 31.7529 17.9338 31.9842 18.2292C32.0572 18.3224 32.1496 18.5306 32.1999 19.0827C32.2492 19.6233 32.25 20.3549 32.25 21.3998L32.25 21.9998L32.25 27.9998L32.25 28.5998C32.25 29.6447 32.2492 30.3763 32.1999 30.917C32.1496 31.469 32.0572 31.6772 31.9842 31.7704C31.7529 32.0659 31.4011 32.2417 31.026 32.2495C30.9076 32.252 30.6856 32.201 30.2138 31.9101C29.7517 31.6251 29.1659 31.1868 28.33 30.5598L25.75 28.6248L25.75 21.3748L28.33 19.4398ZM33.75 28.6748C33.75 29.655 33.7493 30.4436 33.6937 31.0532C33.6378 31.6669 33.5175 32.2453 33.1652 32.6952C32.6563 33.3451 31.8824 33.7321 31.0572 33.7492C30.4859 33.7611 29.951 33.5103 29.4265 33.1868C28.8991 32.8617 28.2588 32.3814 27.4614 31.7833L27.4613 31.7833L27.4612 31.7832L27.43 31.7598L24.7502 29.75L22.75 29.75L22.75 33.5001C22.75 34.7427 21.7426 35.7501 20.5 35.7501C19.2574 35.7501 18.25 34.7427 18.25 33.5001L18.25 29.6911C15.983 29.3315 14.25 27.3681 14.25 25C14.25 22.3766 16.3766 20.25 19 20.25L24.7498 20.25L27.43 18.2398L27.4612 18.2164C28.2587 17.6183 28.8991 17.138 29.4265 16.8128C29.951 16.4893 30.4859 16.2385 31.0572 16.2504C31.8824 16.2676 32.6563 16.6545 33.1652 17.3044C33.5175 17.7544 33.6378 18.3327 33.6937 18.9464C33.7493 19.556 33.75 20.3447 33.75 21.3249C35.4617 21.6723 36.75 23.1856 36.75 24.9998C36.75 26.8141 35.4617 28.3274 33.75 28.6748ZM33.75 27.1218C34.6239 26.8129 35.25 25.9795 35.25 24.9998C35.25 24.0202 34.6239 23.1868 33.75 22.8779L33.75 27.1218ZM24.25 28.25L24.25 21.75L19 21.75C17.2051 21.75 15.75 23.2051 15.75 25C15.75 26.7949 17.2051 28.25 19 28.25L24.25 28.25ZM19.75 29.7501L19.75 33.5001C19.75 33.9143 20.0858 34.2501 20.5 34.2501C20.9142 34.2501 21.25 33.9143 21.25 33.5001L21.25 29.7501L19.75 29.7501Z" fill="white"/>
<defs>
<linearGradient id="paint0_linear" x1="2.5" y1="62" x2="39" y2="-2.5" gradientUnits="userSpaceOnUse">
<stop stop-color="#3469B9"/>
<stop offset="1" stop-color="#6598E3"/>
</linearGradient>
</defs>
</svg>
