<svg width="30" height="30" viewBox="0 0 30 30" fill="none" xmlns="http://www.w3.org/2000/svg">
<rect width="30" height="30" rx="15" fill="#4B96ED"/>
<path fill-rule="evenodd" clip-rule="evenodd" d="M9.75 15C9.75 12.1005 12.1005 9.75 15 9.75C15.8395 9.75 16.631 9.94649 17.3329 10.2953C17.7038 10.4797 18.154 10.3284 18.3383 9.95745C18.5226 9.58652 18.3714 9.13638 18.0004 8.95204C17.0957 8.50245 16.0763 8.25 15 8.25C11.2721 8.25 8.25 11.2721 8.25 15C8.25 18.7279 11.2721 21.75 15 21.75C18.7279 21.75 21.75 18.7279 21.75 15C21.75 14.7471 21.7361 14.4971 21.7088 14.2509C21.6633 13.8392 21.2927 13.5424 20.881 13.5879C20.4693 13.6334 20.1724 14.004 20.2179 14.4157C20.2391 14.6073 20.25 14.8022 20.25 15C20.25 17.8995 17.8995 20.25 15 20.25C12.1005 20.25 9.75 17.8995 9.75 15ZM21.5303 10.8637C21.8232 10.5708 21.8232 10.0959 21.5303 9.803C21.2374 9.51011 20.7626 9.51011 20.4697 9.803L15 15.2727L13.5303 13.803C13.2374 13.5101 12.7626 13.5101 12.4697 13.803C12.1768 14.0959 12.1768 14.5708 12.4697 14.8637L14.4697 16.8637C14.6103 17.0043 14.8011 17.0833 15 17.0833C15.1989 17.0833 15.3897 17.0043 15.5303 16.8637L21.5303 10.8637Z" fill="white"/>
</svg>
