<svg width="50" height="50" viewBox="0 0 50 50" fill="none" xmlns="http://www.w3.org/2000/svg">
<path d="M50 25C50 41.6667 41.6667 50 25 50C8.33333 50 0 41.6667 0 25C0 8.33333 8.33333 0 25 0C41.6667 0 50 8.33333 50 25Z" fill="url(#paint0_linear)"/>
<g clip-path="url(#clip0)">
<path d="M35.5703 21.5652L25.212 17.0444C25.0745 16.9806 24.9198 16.9806 24.7823 17.0444L14.4297 21.5652C14.1719 21.6786 14 21.9762 14 22.3163C14 22.6565 14.1719 22.9541 14.4297 23.0674L18.5318 24.8743V30.0754C18.5318 30.9328 19.2536 31.6627 20.6859 32.2295C21.9292 32.7326 23.4646 33.0019 25.0057 33.0019C26.5469 33.0019 28.0766 32.7255 29.3255 32.2295C30.7521 31.6556 31.4797 30.9328 31.4797 30.0754V24.8743L33.0208 24.1941L34.4589 23.5635L35.576 23.0745C35.8281 22.9541 36 22.6565 36 22.3163C36 21.9762 35.8281 21.6786 35.5703 21.5652ZM28.6151 30.8265C27.5495 31.2021 26.2661 31.4076 25 31.4076C23.7339 31.4076 22.4505 31.2021 21.3849 30.8265C20.388 30.4722 19.9469 30.1038 19.8208 29.955V25.4412L24.7823 27.6237C24.851 27.652 24.9255 27.6662 25 27.6662C25.0745 27.6662 25.1432 27.652 25.2177 27.6237L30.1792 25.4412V29.955C30.0589 30.1038 29.612 30.4722 28.6151 30.8265ZM25 26.0223L16.5724 22.3234L25 18.6458L33.4276 22.3234L25 26.0223Z" fill="white"/>
</g>
<defs>
<linearGradient id="paint0_linear" x1="36.5" y1="2.5" x2="-3.70145e-07" y2="55.5" gradientUnits="userSpaceOnUse">
<stop stop-color="#76E09F"/>
<stop offset="1" stop-color="#46CA79"/>
</linearGradient>
<clipPath id="clip0">
<rect width="22" height="16" fill="white" transform="translate(14 17)"/>
</clipPath>
</defs>
</svg>
