<svg width="50" height="50" viewBox="0 0 50 50" fill="none" xmlns="http://www.w3.org/2000/svg">
<path d="M50 25C50 41.6667 41.6667 50 25 50C8.33333 50 0 41.6667 0 25C0 8.33333 8.33333 0 25 0C41.6667 0 50 8.33333 50 25Z" fill="url(#paint0_linear)"/>
<path fill-rule="evenodd" clip-rule="evenodd" d="M25 16.7501C20.4437 16.7501 16.75 20.4437 16.75 25.0001C16.75 29.5564 20.4437 33.2501 25 33.2501C29.5563 33.2501 33.25 29.5564 33.25 25.0001C33.25 20.4437 29.5563 16.7501 25 16.7501ZM15.25 25.0001C15.25 19.6153 19.6152 15.2501 25 15.2501C30.3848 15.2501 34.75 19.6153 34.75 25.0001C34.75 30.3848 30.3848 34.7501 25 34.7501C19.6152 34.7501 15.25 30.3848 15.25 25.0001ZM21.2499 22.7435C21.2499 21.3665 22.3663 20.2501 23.7434 20.2501H24.25V19.5001C24.25 19.0859 24.5858 18.7501 25 18.7501C25.4142 18.7501 25.75 19.0859 25.75 19.5001V20.2501H25.9999C27.5187 20.2501 28.7499 21.4813 28.7499 23.0001C28.7499 23.4143 28.4142 23.7501 27.9999 23.7501C27.5857 23.7501 27.2499 23.4143 27.2499 23.0001C27.2499 22.3098 26.6903 21.7501 25.9999 21.7501H25.75V24.4596L27.045 24.8912C28.0632 25.2306 28.7499 26.1835 28.7499 27.2567C28.7499 28.6338 27.6336 29.7501 26.2565 29.7501H25.75V30.5001C25.75 30.9143 25.4142 31.2501 25 31.2501C24.5858 31.2501 24.25 30.9143 24.25 30.5001V29.7501H23.9999C22.4812 29.7501 21.2499 28.5189 21.2499 27.0001C21.2499 26.5859 21.5857 26.2501 21.9999 26.2501C22.4142 26.2501 22.7499 26.5859 22.7499 27.0001C22.7499 27.6905 23.3096 28.2501 23.9999 28.2501H24.25V25.5407L22.9549 25.109C21.9367 24.7696 21.2499 23.8168 21.2499 22.7435ZM24.25 23.9596V21.7501H23.7434C23.1947 21.7501 22.7499 22.1949 22.7499 22.7435C22.7499 23.1711 23.0236 23.5508 23.4292 23.686L24.25 23.9596ZM25.75 26.0407V28.2501H26.2565C26.8052 28.2501 27.2499 27.8053 27.2499 27.2567C27.2499 26.8291 26.9763 26.4495 26.5707 26.3143L25.75 26.0407Z" fill="white"/>
<defs>
<linearGradient id="paint0_linear" x1="15" y1="50" x2="39" y2="4.5" gradientUnits="userSpaceOnUse">
<stop stop-color="#54A583"/>
<stop offset="1" stop-color="#30BA80"/>
</linearGradient>
</defs>
</svg>
