<svg width="50" height="50" viewBox="0 0 50 50" fill="none" xmlns="http://www.w3.org/2000/svg">
<path d="M50 25C50 41.6667 41.6667 50 25 50C8.33333 50 0 41.6667 0 25C0 8.33333 8.33333 0 25 0C41.6667 0 50 8.33333 50 25Z" fill="url(#paint0_linear)"/>
<path fill-rule="evenodd" clip-rule="evenodd" d="M15.75 25C15.75 19.8914 19.8914 15.75 25 15.75C30.1086 15.75 34.25 19.8914 34.25 25C34.25 30.1086 30.1086 34.25 25 34.25C19.8914 34.25 15.75 30.1086 15.75 25ZM25 14.25C19.0629 14.25 14.25 19.0629 14.25 25C14.25 30.9371 19.0629 35.75 25 35.75C30.9371 35.75 35.75 30.9371 35.75 25C35.75 19.0629 30.9371 14.25 25 14.25ZM25.9035 22.0343L25.8747 22.0151C25.4953 21.7622 25.1683 21.5441 24.8939 21.3954C24.6193 21.2466 24.2799 21.0987 23.8957 21.1216C23.3849 21.1521 22.9131 21.4047 22.6044 21.8127C22.3722 22.1196 22.3069 22.4841 22.2784 22.7952C22.25 23.1059 22.25 23.499 22.25 23.9549L22.25 23.9896V26.0104L22.25 26.0451C22.25 26.501 22.25 26.8941 22.2784 27.2048C22.3069 27.5159 22.3722 27.8804 22.6044 28.1873C22.9131 28.5953 23.3849 28.8479 23.8957 28.8784C24.2799 28.9013 24.6193 28.7534 24.8939 28.6046C25.1683 28.4559 25.4953 28.2378 25.8747 27.9849L25.9035 27.9657L27.4191 26.9553L27.446 26.9374L27.446 26.9374C27.7568 26.7302 28.0313 26.5472 28.2396 26.3793C28.4551 26.2055 28.6838 25.9838 28.8137 25.6704C28.9917 25.2412 28.9917 24.7588 28.8137 24.3296C28.6838 24.0162 28.4551 23.7945 28.2396 23.6207C28.0313 23.4528 27.7568 23.2698 27.446 23.0626L27.4191 23.0447L25.9035 22.0343ZM23.81 22.706C23.8508 22.6584 23.9079 22.6278 23.9702 22.6203C23.9878 22.6251 24.0498 22.644 24.1792 22.7142C24.3857 22.8261 24.6551 23.0048 25.0715 23.2824L26.5871 24.2928C26.9329 24.5233 27.1493 24.6685 27.2979 24.7884C27.3895 24.8622 27.4228 24.9017 27.4317 24.9131C27.4524 24.9692 27.4524 25.0308 27.4317 25.0869C27.4228 25.0983 27.3895 25.1378 27.2979 25.2116C27.1493 25.3315 26.9329 25.4767 26.5871 25.7072L25.0715 26.7176C24.6551 26.9952 24.3857 27.1739 24.1792 27.2858C24.0498 27.356 23.9878 27.3749 23.9702 27.3797C23.9079 27.3722 23.8508 27.3416 23.81 27.294C23.8042 27.2767 23.7856 27.2146 23.7722 27.068C23.7508 26.8341 23.75 26.5109 23.75 26.0104V23.9896C23.75 23.4891 23.7508 23.1659 23.7722 22.932C23.7856 22.7854 23.8042 22.7233 23.81 22.706Z" fill="white"/>
<defs>
<linearGradient id="paint0_linear" x1="-3.5" y1="66" x2="46.5" y2="-5.5" gradientUnits="userSpaceOnUse">
<stop stop-color="#7369E3"/>
<stop offset="1" stop-color="#A976FD"/>
</linearGradient>
</defs>
</svg>
