<svg width="50" height="50" viewBox="0 0 50 50" fill="none" xmlns="http://www.w3.org/2000/svg">
<path d="M50 25C50 41.6667 41.6667 50 25 50C8.33333 50 0 41.6667 0 25C0 8.33333 8.33333 0 25 0C41.6667 0 50 8.33333 50 25Z" fill="url(#paint0_linear)"/>
<path fill-rule="evenodd" clip-rule="evenodd" d="M21.837 18.25C22.1755 16.8167 23.4632 15.75 25 15.75C26.5368 15.75 27.8245 16.8167 28.163 18.25H21.837ZM20.3085 18.2524C20.6671 15.9842 22.631 14.25 25 14.25C27.369 14.25 29.3329 15.9842 29.6915 18.2524C30.3062 18.2569 30.833 18.2698 31.2883 18.307C32.0017 18.3653 32.6053 18.4869 33.1565 18.7677C34.0502 19.2231 34.7769 19.9498 35.2323 20.8435C35.5131 21.3947 35.6347 21.9983 35.693 22.7117C35.75 23.4094 35.75 24.2748 35.75 25.367V25.4V27.6V27.633C35.75 28.7252 35.75 29.5906 35.693 30.2883C35.6347 31.0017 35.5131 31.6053 35.2323 32.1565C34.7769 33.0502 34.0502 33.7769 33.1565 34.2323C32.6053 34.5131 32.0017 34.6347 31.2883 34.693C30.5907 34.75 29.7252 34.75 28.6331 34.75H28.633H28.6H21.4H21.367H21.3669C20.2748 34.75 19.4093 34.75 18.7117 34.693C17.9983 34.6347 17.3947 34.5131 16.8435 34.2323C15.9498 33.7769 15.2231 33.0502 14.7677 32.1565C14.4869 31.6053 14.3653 31.0017 14.307 30.2883C14.25 29.5906 14.25 28.7251 14.25 27.633V27.6V25.4V25.367C14.25 24.2749 14.25 23.4094 14.307 22.7117C14.3653 21.9983 14.4869 21.3947 14.7677 20.8435C15.2231 19.9498 15.9498 19.2231 16.8435 18.7677C17.3947 18.4869 17.9983 18.3653 18.7117 18.307C19.167 18.2698 19.6938 18.2569 20.3085 18.2524ZM18.8339 19.802C18.2133 19.8527 17.829 19.9491 17.5245 20.1042C16.913 20.4158 16.4158 20.913 16.1042 21.5245C15.9491 21.829 15.8527 22.2133 15.802 22.8339C15.7901 22.9798 15.7809 23.1351 15.7738 23.3018C15.784 23.3058 15.7942 23.31 15.8043 23.3145L15.8043 23.3145L15.8044 23.3145L15.8046 23.3146L15.8057 23.3151L15.8132 23.3184L15.8472 23.3331C15.8782 23.3464 15.9257 23.3665 15.9887 23.3924C16.1147 23.4443 16.3026 23.5195 16.5446 23.6103C17.0289 23.7919 17.7284 24.0352 18.581 24.2789C19.0894 24.4241 19.65 24.5688 20.25 24.7004V24C20.25 23.5858 20.5858 23.25 21 23.25C21.4142 23.25 21.75 23.5858 21.75 24V24.9834C22.7776 25.145 23.8774 25.25 25 25.25C26.1226 25.25 27.2224 25.145 28.25 24.9834V24C28.25 23.5858 28.5858 23.25 29 23.25C29.4142 23.25 29.75 23.5858 29.75 24V24.7004C30.35 24.5688 30.9106 24.4241 31.419 24.2789C32.2716 24.0352 32.9711 23.7919 33.4554 23.6103C33.6974 23.5195 33.8853 23.4443 34.0113 23.3924C34.0743 23.3665 34.1218 23.3464 34.1528 23.3331L34.1868 23.3184L34.1943 23.3151L34.1954 23.3146L34.1956 23.3145C34.2058 23.31 34.216 23.3058 34.2262 23.3018C34.2191 23.1351 34.2099 22.9798 34.198 22.8339C34.1473 22.2133 34.0509 21.829 33.8958 21.5245C33.5842 20.913 33.087 20.4158 32.4755 20.1042C32.171 19.9491 31.7867 19.8527 31.1661 19.802C30.5367 19.7506 29.7325 19.75 28.6 19.75H21.4C20.2675 19.75 19.4633 19.7506 18.8339 19.802ZM28.25 26.5007V27C28.25 27.4142 28.5858 27.75 29 27.75C29.4142 27.75 29.75 27.4142 29.75 27V26.2341C30.5088 26.077 31.2096 25.8987 31.831 25.7211C32.7284 25.4648 33.4664 25.2081 33.9821 25.0147C34.0793 24.9783 34.1687 24.9441 34.2498 24.9125C34.25 25.068 34.25 25.2303 34.25 25.4V27.6C34.25 28.7325 34.2494 29.5367 34.198 30.1661C34.1473 30.7867 34.0509 31.171 33.8958 31.4755C33.5842 32.087 33.087 32.5842 32.4755 32.8958C32.171 33.0509 31.7867 33.1473 31.1661 33.198C30.5367 33.2494 29.7325 33.25 28.6 33.25H21.4C20.2675 33.25 19.4633 33.2494 18.8339 33.198C18.2133 33.1473 17.829 33.0509 17.5245 32.8958C16.913 32.5842 16.4158 32.087 16.1042 31.4755C15.9491 31.171 15.8527 30.7867 15.802 30.1661C15.7506 29.5367 15.75 28.7325 15.75 27.6V25.4C15.75 25.2303 15.75 25.068 15.7502 24.9125C15.8313 24.9441 15.9207 24.9783 16.0179 25.0147C16.5336 25.2081 17.2716 25.4648 18.169 25.7211C18.7904 25.8987 19.4912 26.077 20.25 26.2341V27C20.25 27.4142 20.5858 27.75 21 27.75C21.4142 27.75 21.75 27.4142 21.75 27V26.5007C22.7781 26.6527 23.8754 26.75 25 26.75C26.1246 26.75 27.2219 26.6527 28.25 26.5007Z" fill="white"/>
<defs>
<linearGradient id="paint0_linear" x1="37.5" y1="-1.17347e-06" x2="17" y2="47.5" gradientUnits="userSpaceOnUse">
<stop stop-color="#FD955C"/>
<stop offset="1" stop-color="#ED7B3C"/>
</linearGradient>
</defs>
</svg>
